<svg width="25" height="25" viewBox="0 0 25 25" fill="none" xmlns="http://www.w3.org/2000/svg">
<g clip-path="url(#clip0_0_33)">
<path d="M1.5625 1.7011C-0.402079 3.74173 4.11272e-06 5.90943 4.11272e-06 12.4949C4.11272e-06 17.9636 -0.954163 23.4459 4.03959 24.7365C5.59896 25.1376 19.4156 25.1376 20.9729 24.7344C23.0521 24.198 24.7438 22.5115 24.975 19.5709C25.0073 19.1605 25.0073 5.83652 24.974 5.41777C24.7281 2.28548 22.8 0.480267 20.2594 0.114642C19.6771 0.0302668 19.5604 0.00526684 16.5729 5.8502e-05C5.97605 0.00526684 3.65313 -0.466608 1.5625 1.7011Z" fill="url(#paint0_linear_0_33)"/>
<path d="M12.4979 3.26965C8.7156 3.26965 5.12394 2.93319 3.75206 6.45403C3.1854 7.90819 3.26769 9.79674 3.26769 12.5009C3.26769 14.8738 3.19165 17.104 3.75206 18.5467C5.12081 22.0697 8.74164 21.7322 12.4958 21.7322C16.1177 21.7322 19.8521 22.1092 21.2406 18.5467C21.8083 17.078 21.725 15.2176 21.725 12.5009C21.725 8.89465 21.9239 6.56653 20.175 4.81861C18.4041 3.04778 16.0093 3.26965 12.4937 3.26965H12.4979ZM11.6708 4.93319C19.5604 4.92069 20.5646 4.04361 20.0104 16.228C19.8135 20.5374 16.5323 20.0644 12.4989 20.0644C5.14477 20.0644 4.93331 19.854 4.93331 12.4967C4.93331 5.05403 5.51665 4.93736 11.6708 4.93111V4.93319ZM17.425 6.46548C16.8135 6.46548 16.3177 6.96132 16.3177 7.57278C16.3177 8.18424 16.8135 8.68007 17.425 8.68007C18.0364 8.68007 18.5323 8.18424 18.5323 7.57278C18.5323 6.96132 18.0364 6.46548 17.425 6.46548ZM12.4979 7.76028C9.88019 7.76028 7.75831 9.88319 7.75831 12.5009C7.75831 15.1186 9.88019 17.2405 12.4979 17.2405C15.1156 17.2405 17.2364 15.1186 17.2364 12.5009C17.2364 9.88319 15.1156 7.76028 12.4979 7.76028ZM12.4979 9.42382C16.5656 9.42382 16.5708 15.578 12.4979 15.578C8.43123 15.578 8.42498 9.42382 12.4979 9.42382Z" fill="white"/>
</g>
<defs>
<linearGradient id="paint0_linear_0_33" x1="1.61044" y1="23.4033" x2="24.8453" y2="3.29378" gradientUnits="userSpaceOnUse">
<stop stop-color="#FFDD55"/>
<stop offset="0.5" stop-color="#FF543E"/>
<stop offset="1" stop-color="#C837AB"/>
</linearGradient>
<clipPath id="clip0_0_33">
<rect width="25" height="25" fill="white"/>
</clipPath>
</defs>
</svg>
